 http://img94.imageshack.us/img94/792/thewarde.jpg

Country.......: USA
Genre.........: Horror
Date release..: 13.09.2010 [World]
Director......: John Carpenter
Writers.......: Michael Rasmussen, Shawn Rasmussen
Duration......: 89 min.
More..........: http://www.imdb.com/title/tt1369706
Trailer.......: http://www.imdb.com/video/imdb/vi2659556121
Trailer.......:

Pilot :
A thriller centered on an institutionalized young woman who becomes terrorized by a ghost

Cats :
Amber Heard   	 ...  	Kristen
Lyndsy Fonseca 	... 	Iris
Danielle Panabaker 	... 	Sarah
Jared Harris 	... 	Dr. Stringer
Mika Boorem 	... 	Alice
Mamie Gummer 	... 	Emily
Reila Aphrodite 	... 	Naomi
Laura Leigh 	... 	Zoey
Sean Cook 	... 	Jimmy
Sydney Sweeney 	... 	Young Alice
Jillian Kramer 	... 	Monster Alice
Sali Sayler 	... 	Tammy
Milos Milicevic 	... 	Predator
D.R. Anderson 	... 	Roy
Susanna Burney 	... 	Nurse Lundt 

Data Technical :
!!! SAMPLE !!!
Audio.....: English
Subtitles.: None
Format                           : AVI
Format/Info                      : Audio Video Interleave
File size                        : 639 MiB
Duration                         : 1h 28mn
Overall bit rate                 : 1 008 Kbps
Writing application              : Lavf52.22.1
Video
ID                               : 0
Format                           : MPEG-4 Visual
Format profile                   : Simple@L1
Format settings, BVOP            : No
Format settings, QPel            : No
Format settings, GMC             : No warppoints
Format settings, Matrix          : Default (H.263)
Codec ID                         : XVID
Codec ID/Hint                    : XviD
Duration                         : 1h 28mn
Bit rate                         : 868 Kbps
Width                            : 714 pixels
Height                           : 302 pixels
Display aspect ratio             : 2.35:1
Frame rate                       : 25.000 fps
Color space                      : YUV
Chroma subsampling               : 4:2:0
Bit depth                        : 8 bits
Scan type                        : Progressive
Bits/(Pixel*Frame)               : 0.161
Stream size                      : 550 MiB (86%)
Writing library                  : Lavc52.0.0
Audio
ID                               : 1
Format                           : MPEG Audio
Format version                   : Version 1
Format profile                   : Layer 3
Codec ID                         : 55
Codec ID/Hint                    : MP3
Duration                         : 1h 28mn
Bit rate mode                    : Constant
Bit rate                         : 128 Kbps
Channel(s)                       : 2 channels
Sampling rate                    : 44.1 KHz
Stream size                      : 81.1 MiB (13%)
Alignment                        : Aligned on interleaves
Interleave, duration             : 26 ms (0.65 video frame)

Screen : 
http://img69.imageshack.us/img69/6783/theward2010s1.jpg 
http://img851.imageshack.us/img851/1816/theward2010s2.jpg 
http://img687.imageshack.us/img687/2251/theward2010s3.jpg 
http://img815.imageshack.us/img815/917/theward2010s4.jpg 
http://img696.imageshack.us/img696/8817/theward2010s5.jpg